<?xml version="1.0" encoding="utf-8"?>
<!-- Generator: Adobe Illustrator 22.0.1, SVG Export Plug-In . SVG Version: 6.00 Build 0)  -->
<svg version="1.1" id="Layer_1" xmlns="http://www.w3.org/2000/svg" xmlns:xlink="http://www.w3.org/1999/xlink" x="0px" y="0px"
	 viewBox="0 0 1366 768" style="enable-background:new 0 0 1366 768;" xml:space="preserve">
<style type="text/css">
	.st0{stroke:#000000;stroke-width:2;stroke-miterlimit:10;}
</style>
<path class="st0" d="M663.9,260.3H290c0,0,37.3-137.7,104.5-137.7h268.7"/>
<path class="st0" d="M662.1,122.6H1061c0,0-39.8,137.7-111.5,137.7H662.8"/>
<path class="st0" d="M674.3,607H290c0,0,38.4-137.7,107.4-137.7h276.3"/>
<path class="st0" d="M662.1,469.3H1061c0,0-39.8,137.7-111.5,137.7H662.8"/>
<path class="st0" d="M674.3,296H290c0,0,38.4,137.7,107.4,137.7h276.3"/>
<path class="st0" d="M662.1,433.7H1061c0,0-39.8-137.7-111.5-137.7H662.8"/>
</svg>
