<svg id="Layer_1" data-name="Layer 1" xmlns="http://www.w3.org/2000/svg" viewBox="0 0 32.41 32.41">
  <title>svg21</title>
  <path d="M17.9,1.7A16.2,16.2,0,1,0,34.1,17.9,16.2,16.2,0,0,0,17.9,1.7Zm3.73,15.9H18.79v2.6a5,5,0,0,0,.06,1.23,1.06,1.06,0,0,0,.43.49,1.65,1.65,0,0,0,.86.23,2.34,2.34,0,0,0,1.49-.45v1.71a7,7,0,0,1-1.31.45,5.61,5.61,0,0,1-1.27.14,3.43,3.43,0,0,1-1.22-.2,2.91,2.91,0,0,1-1-.56,1.93,1.93,0,0,1-.59-.78,3.33,3.33,0,0,1-.16-1.19v-4H14.53V15.68a4,4,0,0,0,1.26-.63,2.94,2.94,0,0,0,.76-1A4.32,4.32,0,0,0,17,12.63h1.83v2.84h2.84V17.6Z" transform="translate(-1.7 -1.7)"/>
</svg>
